Coordinates
version=1
nRows=8
nColumns=40
inDegrees=yes

Units are S.I. units (second, meters, Newtons, ...)
Angles are in degrees.

endheader
time	pelvis_tilt	pelvis_list	pelvis_rotation	pelvis_tx	pelvis_ty	pelvis_tz	hip_flexion_r	hip_adduction_r	hip_rotation_r	knee_angle_r	knee_angle_r_beta	ankle_angle_r	subtalar_angle_r	mtp_angle_r	hip_flexion_l	hip_adduction_l	hip_rotation_l	knee_angle_l	knee_angle_l_beta	ankle_angle_l	subtalar_angle_l	mtp_angle_l	lumbar_extension	lumbar_bending	lumbar_rotation	arm_flex_r	arm_add_r	arm_rot_r	elbow_flex_r	pro_sup_r	wrist_flex_r	wrist_dev_r	arm_flex_l	arm_add_l	arm_rot_l	elbow_flex_l	pro_sup_l	wrist_flex_l	wrist_dev_l
     25.75342857	     -3.50869160	     -4.51241966	      7.99300713	      1.08794788	      0.92558055	      0.49654428	      2.42138669	      2.52528379	    -19.29580439	     12.62026428	     12.62026428	     14.87764570	     -0.65900358	     -6.27973764	     29.48462164	     -7.11237541	     -1.07678623	     20.67651515	     20.67651515	      4.32331563	     -6.40129060	      3.54621846	     -9.23638208	      5.56546946	      3.01994262	     38.08662853	    -20.29404515	     -6.53977312	     89.99440541	     44.67347452	      0.00000000	      0.00000000	    -10.64903065	     -7.84751459	      5.16572707	     29.03983768	     44.26406222	      0.00000000	      0.00000000
     25.76685714	     -3.47729523	     -4.66142511	      7.94047862	      1.08919452	      0.92455942	      0.49470764	      1.82166621	      2.64756852	    -19.29735910	     12.44090500	     12.44090500	     15.37930778	     -0.28176664	     -5.91475409	     28.95655442	     -7.07425309	     -0.54724942	     21.46614915	     21.46614915	      4.08667893	     -7.18264097	      3.38805890	     -9.06967401	      5.57111328	      3.14932706	     37.97334256	    -20.06097751	     -7.07240646	     91.58967694	     44.66825180	      0.00000000	      0.00000000	    -11.41695952	     -7.82350346	      4.84991231	     30.26992843	     44.35854847	      0.00000000	      0.00000000
     25.78028571	     -3.43208867	     -4.70034661	      7.82396730	      1.09050753	      0.92358936	      0.49278380	      1.28895016	      2.62117348	    -19.10915784	     12.44232685	     12.44232685	     15.76733968	     -0.24288830	     -5.95665413	     28.42671583	     -7.01338836	     -0.34235742	     22.25053513	     22.25053513	      4.11619877	     -7.51854876	      3.27680897	     -8.85990640	      5.43691015	      3.22359565	     38.06540668	    -19.93815253	     -7.10665035	     91.80615930	     44.66565342	      0.00000000	      0.00000000	    -11.67802120	     -7.75328134	      4.84733409	     30.21269303	     44.36133813	      0.00000000	      0.00000000
     25.79371429	     -3.39731238	     -4.76321979	      7.76395811	      1.09174161	      0.92265366	      0.49075755	      0.76795870	      2.62228859	    -18.94852366	     12.42690755	     12.42690755	     16.12777994	     -0.23983079	     -5.88283294	     27.99369844	     -6.93199169	      0.02367105	     22.99051484	     22.99051484	      4.28555000	     -7.94481463	      3.13765164	     -8.67094559	      5.33313827	      3.19115225	     38.10441023	    -19.71496628	     -7.17757869	     92.17971398	     44.66022073	      0.00000000	      0.00000000	    -11.82511400	     -7.71200783	      4.81559087	     30.22379725	     44.37287170	      0.00000000	      0.00000000
     25.80714286	     -3.36108803	     -4.75254755	      7.71111073	      1.09299013	      0.92192101	      0.48848184	      0.27863550	      2.51331486	    -18.74856809	     12.49624689	     12.49624689	     16.46456097	     -0.31800371	     -5.68272398	     27.59600589	     -6.76338200	      0.35620902	     23.65496124	     23.65496124	      4.52955898	     -8.42215421	      2.98961547	     -8.50841464	      5.19748513	      3.10202275	     37.96195084	    -19.47577519	     -7.29785460	     92.57519592	     44.65592049	      0.00000000	      0.00000000	    -11.87675702	     -7.71041696	      4.74888422	     30.25603992	     44.39311378	      0.00000000	      0.00000000
     25.82057143	     -3.32932407	     -4.66184113	      7.66439926	      1.09414859	      0.92142608	      0.48609826	     -0.16664844	      2.29098655	    -18.58716891	     12.64115481	     12.64115481	     16.73515573	     -0.44365044	     -5.56884050	     27.21754842	     -6.53383185	      0.54117440	     24.21031020	     24.21031020	      4.90045963	     -8.76689021	      2.77657707	     -8.35046011	      4.91873492	      3.00238029	     37.66442842	    -19.29959572	     -7.33616100	     92.71580724	     44.65393461	      0.00000000	      0.00000000	    -11.77205846	     -7.73175132	      4.70648727	     30.27858824	     44.40660942	      0.00000000	      0.00000000
     25.83400000	     -3.28331832	     -4.57141206	      7.63590044	      1.09519165	      0.92109647	      0.48360257	     -0.51167104	      2.03240328	    -18.37054134	     12.99723025	     12.99723025	     17.01643565	     -0.68652345	     -5.32224766	     26.91236124	     -6.28955886	      0.80660515	     24.77685236	     24.77685236	      5.36020866	     -9.19715117	      2.53501006	     -8.26415290	      4.65779777	      2.88447443	     37.26581554	    -19.08633645	     -7.44441309	     92.91252763	     44.65329580	      0.00000000	      0.00000000	    -11.53213404	     -7.79061537	      4.62875743	     30.28147726	     44.43051351	      0.00000000	      0.00000000
     25.84742857	     -3.21829519	     -4.45954331	      7.60339652	      1.09608791	      0.92103654	      0.48095470	     -0.77106380	      1.70343150	    -18.19593246	     13.53593795	     13.53593795	     17.21438196	     -1.01283638	     -5.05771295	     26.61500955	     -6.03819482	      0.94983443	     25.29162503	     25.29162503	      5.85111224	     -9.60121924	      2.29005981	     -8.21862683	      4.38706394	      2.73767003	     36.70369106	    -18.88764798	     -7.53122753	     92.99065985	     44.65480041	      0.00000000	      0.00000000	    -11.13508657	     -7.87655950	      4.54607506	     30.27655025	     44.45711356	      0.00000000	      0.00000000
